<?xml version="1.0" encoding="UTF-8" standalone="no"?>
<!DOCTYPE svg PUBLIC "-//W3C//DTD SVG 1.1//EN"
 "http://www.w3.org/Graphics/SVG/1.1/DTD/svg11.dtd">
<!-- Generated by graphviz version 2.38.0 (20140413.2041)
 -->
<!-- Title: WorkRunner Pages: 1 -->
<svg width="504pt" height="255pt"
 viewBox="0.00 0.00 503.61 255.00" xmlns="http://www.w3.org/2000/svg" xmlns:xlink="http://www.w3.org/1999/xlink">
<g id="graph0" class="graph" transform="scale(1 1) rotate(0) translate(4 251)">
<title>WorkRunner</title>
<g id="clust1" class="cluster"><title>cluster0</title>
<polygon fill="khaki" stroke="lightgrey" points="168,-44 168,-174 286,-174 286,-44 168,-44"/>
<text text-anchor="middle" x="227" y="-160.4" font-family="SEOptimist" font-size="12.00">HTTP Service Layer</text>
</g>
<g id="clust2" class="cluster"><title>cluster1</title>
<polygon fill="khaki" stroke="lightgrey" points="388,-8 388,-239 490.61,-239 490.61,-8 388,-8"/>
<text text-anchor="middle" x="439.305" y="-225.4" font-family="SEOptimist" font-size="12.00">Platform Cluster</text>
</g>
<!-- Client1 -->
<g id="node1" class="node"><title>Client1</title>
<path fill="lightgrey" stroke="black" d="M12,-163C12,-163 42,-163 42,-163 48,-163 54,-169 54,-175 54,-175 54,-187 54,-187 54,-193 48,-199 42,-199 42,-199 12,-199 12,-199 6,-199 0,-193 0,-187 0,-187 0,-175 0,-175 0,-169 6,-163 12,-163"/>
<text text-anchor="middle" x="27" y="-177.9" font-family="SEOptimistLight" font-size="12.00">Client1</text>
</g>
<!-- Client2 -->
<g id="node2" class="node"><title>Client2</title>
<path fill="lightgrey" stroke="black" d="M12,-108C12,-108 42,-108 42,-108 48,-108 54,-114 54,-120 54,-120 54,-132 54,-132 54,-138 48,-144 42,-144 42,-144 12,-144 12,-144 6,-144 0,-138 0,-132 0,-132 0,-120 0,-120 0,-114 6,-108 12,-108"/>
<text text-anchor="middle" x="27" y="-122.9" font-family="SEOptimistLight" font-size="12.00">Client2</text>
</g>
<!-- ClientN -->
<g id="node3" class="node"><title>ClientN</title>
<path fill="lightgrey" stroke="black" d="M12,-53C12,-53 42,-53 42,-53 48,-53 54,-59 54,-65 54,-65 54,-77 54,-77 54,-83 48,-89 42,-89 42,-89 12,-89 12,-89 6,-89 0,-83 0,-77 0,-77 0,-65 0,-65 0,-59 6,-53 12,-53"/>
<text text-anchor="middle" x="27" y="-67.9" font-family="SEOptimistLight" font-size="12.00">ClientN</text>
</g>
<!-- REST API\nA -->
<g id="node4" class="node"><title>REST API\nA</title>
<path fill="white" stroke="gray" stroke-width="2" d="M207,-108C207,-108 247,-108 247,-108 253,-108 259,-114 259,-120 259,-120 259,-132 259,-132 259,-138 253,-144 247,-144 247,-144 207,-144 207,-144 201,-144 195,-138 195,-132 195,-132 195,-120 195,-120 195,-114 201,-108 207,-108"/>
<text text-anchor="middle" x="227" y="-129.4" font-family="SEOptimist" font-size="12.00">REST API</text>
<text text-anchor="middle" x="227" y="-116.4" font-family="SEOptimist" font-size="12.00">A</text>
</g>
<!-- REST API\nA&#45;&gt;Client1 -->
<g id="edge1" class="edge"><title>REST API\nA&#45;&gt;Client1</title>
<path fill="none" stroke="black" d="M194.626,-134.715C159.143,-144.571 101.457,-160.595 64.1232,-170.966"/>
<polygon fill="black" stroke="black" points="62.8668,-167.682 54.1683,-173.731 64.7403,-174.427 62.8668,-167.682"/>
<text text-anchor="middle" x="115" y="-170" font-family="SEOptimistLight" font-size="10.00">GET /api/resource/a</text>
</g>
<!-- REST API\nA&#45;&gt;Client2 -->
<g id="edge2" class="edge"><title>REST API\nA&#45;&gt;Client2</title>
<path fill="none" stroke="black" d="M194.626,-126C159.294,-126 101.949,-126 64.603,-126"/>
<polygon fill="black" stroke="black" points="64.1684,-122.5 54.1683,-126 64.1683,-129.5 64.1684,-122.5"/>
<text text-anchor="middle" x="115" y="-129" font-family="SEOptimistLight" font-size="10.00">GET /api/resource/a</text>
</g>
<!-- REST API\nB -->
<g id="node5" class="node"><title>REST API\nB</title>
<path fill="white" stroke="gray" stroke-width="2" d="M207,-53C207,-53 247,-53 247,-53 253,-53 259,-59 259,-65 259,-65 259,-77 259,-77 259,-83 253,-89 247,-89 247,-89 207,-89 207,-89 201,-89 195,-83 195,-77 195,-77 195,-65 195,-65 195,-59 201,-53 207,-53"/>
<text text-anchor="middle" x="227" y="-74.4" font-family="SEOptimist" font-size="12.00">REST API</text>
<text text-anchor="middle" x="227" y="-61.4" font-family="SEOptimist" font-size="12.00">B</text>
</g>
<!-- REST API\nB&#45;&gt;ClientN -->
<g id="edge3" class="edge"><title>REST API\nB&#45;&gt;ClientN</title>
<path fill="none" stroke="black" d="M194.626,-71C159.294,-71 101.949,-71 64.603,-71"/>
<polygon fill="black" stroke="black" points="64.1684,-67.5001 54.1683,-71 64.1683,-74.5001 64.1684,-67.5001"/>
<text text-anchor="middle" x="115" y="-74" font-family="SEOptimistLight" font-size="10.00">GET /api/resource/b</text>
</g>
<!-- Emitter\n A -->
<g id="node6" class="node"><title>Emitter\n A</title>
<ellipse fill="white" stroke="gray" stroke-width="2" cx="439.305" cy="-146" rx="40.1111" ry="24.0833"/>
<text text-anchor="middle" x="439.305" y="-149.4" font-family="SEOptimist" font-size="12.00">Emitter</text>
<text text-anchor="middle" x="439.305" y="-136.4" font-family="SEOptimist" font-size="12.00"> A</text>
</g>
<!-- Emitter\n A&#45;&gt;REST API\nA -->
<g id="edge6" class="edge"><title>Emitter\n A&#45;&gt;REST API\nA</title>
<path fill="none" stroke="black" stroke-width="1.5" d="M399.241,-142.285C362.325,-138.774 307.132,-133.525 269.452,-129.942"/>
<polygon fill="black" stroke="black" stroke-width="1.5" points="269.604,-126.441 259.318,-128.978 268.942,-133.409 269.604,-126.441"/>
<text text-anchor="middle" x="337" y="-143" font-family="SEOptimistLight" font-size="10.00">GET buffered page</text>
</g>
<!-- Emitter\n A&#45;&gt;Emitter\n A -->
<g id="edge4" class="edge"><title>Emitter\n A&#45;&gt;Emitter\n A</title>
<path fill="none" stroke="black" d="M457.865,-167.631C460.433,-178.419 454.246,-188.042 439.305,-188.042 429.5,-188.042 423.465,-183.898 421.2,-178"/>
<polygon fill="black" stroke="black" points="424.68,-177.468 420.745,-167.631 417.687,-177.775 424.68,-177.468"/>
<text text-anchor="middle" x="439.305" y="-202.042" font-family="SEOptimist" font-size="10.00"> &#160;Event </text>
<text text-anchor="middle" x="439.305" y="-191.042" font-family="SEOptimist" font-size="10.00"> Source A</text>
</g>
<!-- Emitter\n B -->
<g id="node7" class="node"><title>Emitter\n B</title>
<ellipse fill="white" stroke="gray" stroke-width="2" cx="439.305" cy="-40" rx="40.1111" ry="24.0833"/>
<text text-anchor="middle" x="439.305" y="-43.4" font-family="SEOptimist" font-size="12.00">Emitter</text>
<text text-anchor="middle" x="439.305" y="-30.4" font-family="SEOptimist" font-size="12.00"> B</text>
</g>
<!-- Emitter\n B&#45;&gt;REST API\nB -->
<g id="edge7" class="edge"><title>Emitter\n B&#45;&gt;REST API\nB</title>
<path fill="none" stroke="black" stroke-width="1.5" d="M399.732,-45.6859C362.771,-51.1341 307.166,-59.3305 269.316,-64.9099"/>
<polygon fill="black" stroke="black" stroke-width="1.5" points="268.524,-61.4887 259.141,-66.4097 269.544,-68.4139 268.524,-61.4887"/>
<text text-anchor="middle" x="337" y="-64" font-family="SEOptimistLight" font-size="10.00">GET buffered page</text>
</g>
<!-- Emitter\n B&#45;&gt;Emitter\n B -->
<g id="edge5" class="edge"><title>Emitter\n B&#45;&gt;Emitter\n B</title>
<path fill="none" stroke="black" d="M457.865,-61.6313C460.433,-72.4191 454.246,-82.0416 439.305,-82.0416 429.5,-82.0416 423.465,-77.8975 421.2,-71.9996"/>
<polygon fill="black" stroke="black" points="424.68,-71.4681 420.745,-61.6313 417.687,-71.7752 424.68,-71.4681"/>
<text text-anchor="middle" x="439.305" y="-96.0416" font-family="SEOptimist" font-size="10.00"> &#160;Event </text>
<text text-anchor="middle" x="439.305" y="-85.0416" font-family="SEOptimist" font-size="10.00"> Source B</text>
</g>
</g>
</svg>
