<?xml version="1.0" encoding="UTF-8" standalone="no"?>
<!DOCTYPE svg PUBLIC "-//W3C//DTD SVG 1.1//EN"
 "http://www.w3.org/Graphics/SVG/1.1/DTD/svg11.dtd">
<!-- Generated by graphviz version 2.38.0 (20140413.2041)
 -->
<!-- Title: WorkRunner Pages: 1 -->
<svg width="469pt" height="255pt"
 viewBox="0.00 0.00 468.61 255.00" xmlns="http://www.w3.org/2000/svg" xmlns:xlink="http://www.w3.org/1999/xlink">
<g id="graph0" class="graph" transform="scale(1 1) rotate(0) translate(4 251)">
<title>WorkRunner</title>
<g id="clust2" class="cluster"><title>cluster1</title>
<polygon fill="khaki" stroke="lightgrey" points="353,-8 353,-239 455.61,-239 455.61,-8 353,-8"/>
<text text-anchor="middle" x="404.305" y="-225.4" font-family="SEOptimist" font-size="12.00">Platform Cluster</text>
</g>
<g id="clust1" class="cluster"><title>cluster0</title>
<polygon fill="khaki" stroke="lightgrey" points="161,-44 161,-174 279,-174 279,-44 161,-44"/>
<text text-anchor="middle" x="220" y="-160.4" font-family="SEOptimist" font-size="12.00">HTTP Service Layer</text>
</g>
<!-- Client1 -->
<g id="node1" class="node"><title>Client1</title>
<path fill="lightgrey" stroke="black" d="M12,-163C12,-163 42,-163 42,-163 48,-163 54,-169 54,-175 54,-175 54,-187 54,-187 54,-193 48,-199 42,-199 42,-199 12,-199 12,-199 6,-199 0,-193 0,-187 0,-187 0,-175 0,-175 0,-169 6,-163 12,-163"/>
<text text-anchor="middle" x="27" y="-177.9" font-family="SEOptimistLight" font-size="12.00">Client1</text>
</g>
<!-- Client2 -->
<g id="node2" class="node"><title>Client2</title>
<path fill="lightgrey" stroke="black" d="M12,-108C12,-108 42,-108 42,-108 48,-108 54,-114 54,-120 54,-120 54,-132 54,-132 54,-138 48,-144 42,-144 42,-144 12,-144 12,-144 6,-144 0,-138 0,-132 0,-132 0,-120 0,-120 0,-114 6,-108 12,-108"/>
<text text-anchor="middle" x="27" y="-122.9" font-family="SEOptimistLight" font-size="12.00">Client2</text>
</g>
<!-- ClientN -->
<g id="node3" class="node"><title>ClientN</title>
<path fill="lightgrey" stroke="black" d="M12,-53C12,-53 42,-53 42,-53 48,-53 54,-59 54,-65 54,-65 54,-77 54,-77 54,-83 48,-89 42,-89 42,-89 12,-89 12,-89 6,-89 0,-83 0,-77 0,-77 0,-65 0,-65 0,-59 6,-53 12,-53"/>
<text text-anchor="middle" x="27" y="-67.9" font-family="SEOptimistLight" font-size="12.00">ClientN</text>
</g>
<!-- Streaming API\nA -->
<g id="node4" class="node"><title>Streaming API\nA</title>
<path fill="white" stroke="gray" stroke-width="2" d="M187,-108C187,-108 254,-108 254,-108 260,-108 266,-114 266,-120 266,-120 266,-132 266,-132 266,-138 260,-144 254,-144 254,-144 187,-144 187,-144 181,-144 175,-138 175,-132 175,-132 175,-120 175,-120 175,-114 181,-108 187,-108"/>
<text text-anchor="middle" x="220.5" y="-129.4" font-family="SEOptimist" font-size="12.00">Streaming API</text>
<text text-anchor="middle" x="220.5" y="-116.4" font-family="SEOptimist" font-size="12.00">A</text>
</g>
<!-- Streaming API\nA&#45;&gt;Client1 -->
<g id="edge1" class="edge"><title>Streaming API\nA&#45;&gt;Client1</title>
<path fill="none" stroke="black" d="M174.602,-138.895C140.785,-148.607 95.047,-161.744 63.7031,-170.746"/>
<polygon fill="black" stroke="black" points="62.7109,-167.389 54.0656,-173.514 64.6432,-174.117 62.7109,-167.389"/>
<text text-anchor="middle" x="111.5" y="-170" font-family="SEOptimistLight" font-size="10.00">GET /api/stream/a</text>
</g>
<!-- Streaming API\nA&#45;&gt;Client2 -->
<g id="edge2" class="edge"><title>Streaming API\nA&#45;&gt;Client2</title>
<path fill="none" stroke="black" d="M174.602,-126C140.931,-126 95.4427,-126 64.1109,-126"/>
<polygon fill="black" stroke="black" points="64.0656,-122.5 54.0656,-126 64.0656,-129.5 64.0656,-122.5"/>
<text text-anchor="middle" x="111.5" y="-129" font-family="SEOptimistLight" font-size="10.00">GET /api/stream/a</text>
</g>
<!-- Streaming API\nB -->
<g id="node5" class="node"><title>Streaming API\nB</title>
<path fill="white" stroke="gray" stroke-width="2" d="M187,-53C187,-53 254,-53 254,-53 260,-53 266,-59 266,-65 266,-65 266,-77 266,-77 266,-83 260,-89 254,-89 254,-89 187,-89 187,-89 181,-89 175,-83 175,-77 175,-77 175,-65 175,-65 175,-59 181,-53 187,-53"/>
<text text-anchor="middle" x="220.5" y="-74.4" font-family="SEOptimist" font-size="12.00">Streaming API</text>
<text text-anchor="middle" x="220.5" y="-61.4" font-family="SEOptimist" font-size="12.00">B</text>
</g>
<!-- Streaming API\nB&#45;&gt;ClientN -->
<g id="edge3" class="edge"><title>Streaming API\nB&#45;&gt;ClientN</title>
<path fill="none" stroke="black" d="M174.602,-71C140.931,-71 95.4427,-71 64.1109,-71"/>
<polygon fill="black" stroke="black" points="64.0656,-67.5001 54.0656,-71 64.0656,-74.5001 64.0656,-67.5001"/>
<text text-anchor="middle" x="111.5" y="-74" font-family="SEOptimistLight" font-size="10.00">GET /api/stream/b</text>
</g>
<!-- Emitter\n A -->
<g id="node6" class="node"><title>Emitter\n A</title>
<ellipse fill="white" stroke="gray" stroke-width="2" cx="404.305" cy="-146" rx="40.1111" ry="24.0833"/>
<text text-anchor="middle" x="404.305" y="-149.4" font-family="SEOptimist" font-size="12.00">Emitter</text>
<text text-anchor="middle" x="404.305" y="-136.4" font-family="SEOptimist" font-size="12.00"> A</text>
</g>
<!-- Emitter\n A&#45;&gt;Streaming API\nA -->
<g id="edge6" class="edge"><title>Emitter\n A&#45;&gt;Streaming API\nA</title>
<path fill="none" stroke="black" stroke-width="1.5" d="M364.303,-141.709C338.656,-138.888 304.72,-135.155 276.365,-132.036"/>
<polygon fill="black" stroke="black" stroke-width="1.5" points="276.519,-128.532 266.196,-130.917 275.754,-135.49 276.519,-128.532"/>
<text text-anchor="middle" x="316" y="-152" font-family="SEOptimistLight" font-size="10.00">Cluster&#45;wide</text>
<text text-anchor="middle" x="316" y="-141" font-family="SEOptimistLight" font-size="10.00">Subscription</text>
</g>
<!-- Emitter\n A&#45;&gt;Emitter\n A -->
<g id="edge4" class="edge"><title>Emitter\n A&#45;&gt;Emitter\n A</title>
<path fill="none" stroke="black" d="M420.402,-168.062C422.39,-178.674 417.024,-188.042 404.305,-188.042 395.958,-188.042 390.778,-184.007 388.765,-178.235"/>
<polygon fill="black" stroke="black" points="392.25,-177.856 388.208,-168.062 385.26,-178.239 392.25,-177.856"/>
<text text-anchor="middle" x="404.305" y="-202.042" font-family="SEOptimist" font-size="10.00"> &#160;Event </text>
<text text-anchor="middle" x="404.305" y="-191.042" font-family="SEOptimist" font-size="10.00"> Source A</text>
</g>
<!-- Emitter\n B -->
<g id="node7" class="node"><title>Emitter\n B</title>
<ellipse fill="white" stroke="gray" stroke-width="2" cx="404.305" cy="-40" rx="40.1111" ry="24.0833"/>
<text text-anchor="middle" x="404.305" y="-43.4" font-family="SEOptimist" font-size="12.00">Emitter</text>
<text text-anchor="middle" x="404.305" y="-30.4" font-family="SEOptimist" font-size="12.00"> B</text>
</g>
<!-- Emitter\n B&#45;&gt;Streaming API\nB -->
<g id="edge7" class="edge"><title>Emitter\n B&#45;&gt;Streaming API\nB</title>
<path fill="none" stroke="black" stroke-width="1.5" d="M365.193,-46.4986C339.393,-50.8979 304.91,-56.7776 276.192,-61.6744"/>
<polygon fill="black" stroke="black" stroke-width="1.5" points="275.567,-58.2303 266.298,-63.3615 276.744,-65.1307 275.567,-58.2303"/>
<text text-anchor="middle" x="316" y="-74" font-family="SEOptimistLight" font-size="10.00">Cluster&#45;wide</text>
<text text-anchor="middle" x="316" y="-63" font-family="SEOptimistLight" font-size="10.00">Subscription</text>
</g>
<!-- Emitter\n B&#45;&gt;Emitter\n B -->
<g id="edge5" class="edge"><title>Emitter\n B&#45;&gt;Emitter\n B</title>
<path fill="none" stroke="black" d="M420.402,-62.0621C422.39,-72.674 417.024,-82.0416 404.305,-82.0416 395.958,-82.0416 390.778,-78.0073 388.765,-72.2346"/>
<polygon fill="black" stroke="black" points="392.25,-71.8557 388.208,-62.0621 385.26,-72.2386 392.25,-71.8557"/>
<text text-anchor="middle" x="404.305" y="-96.0416" font-family="SEOptimist" font-size="10.00"> &#160;Event </text>
<text text-anchor="middle" x="404.305" y="-85.0416" font-family="SEOptimist" font-size="10.00"> Source B</text>
</g>
</g>
</svg>
