<?xml version="1.0" encoding="UTF-8" standalone="no"?>
<!DOCTYPE svg PUBLIC "-//W3C//DTD SVG 1.1//EN"
 "http://www.w3.org/Graphics/SVG/1.1/DTD/svg11.dtd">
<!-- Generated by graphviz version 2.38.0 (20140413.2041)
 -->
<!-- Title: WorkRunner Pages: 1 -->
<svg width="537pt" height="255pt"
 viewBox="0.00 0.00 536.61 255.00" xmlns="http://www.w3.org/2000/svg" xmlns:xlink="http://www.w3.org/1999/xlink">
<g id="graph0" class="graph" transform="scale(1 1) rotate(0) translate(4 251)">
<title>WorkRunner</title>
<g id="clust1" class="cluster"><title>cluster0</title>
<polygon fill="khaki" stroke="lightgrey" points="168,-48 168,-123 286,-123 286,-48 168,-48"/>
<text text-anchor="middle" x="227" y="-109.4" font-family="SEOptimist" font-size="12.00">HTTP Service Layer</text>
</g>
<g id="clust2" class="cluster"><title>cluster1</title>
<polygon fill="khaki" stroke="lightgrey" points="421,-8 421,-239 523.61,-239 523.61,-8 421,-8"/>
<text text-anchor="middle" x="472.305" y="-225.4" font-family="SEOptimist" font-size="12.00">Platform Cluster</text>
</g>
<!-- Client1 -->
<g id="node1" class="node"><title>Client1</title>
<path fill="lightgrey" stroke="black" d="M12,-85C12,-85 42,-85 42,-85 48,-85 54,-91 54,-97 54,-97 54,-109 54,-109 54,-115 48,-121 42,-121 42,-121 12,-121 12,-121 6,-121 -5.68434e-14,-115 -5.68434e-14,-109 -5.68434e-14,-109 -5.68434e-14,-97 -5.68434e-14,-97 -5.68434e-14,-91 6,-85 12,-85"/>
<text text-anchor="middle" x="27" y="-99.9" font-family="SEOptimistLight" font-size="12.00">Client1</text>
</g>
<!-- REST API -->
<g id="node3" class="node"><title>REST API</title>
<path fill="white" stroke="gray" stroke-width="2" d="M207,-57C207,-57 247,-57 247,-57 253,-57 259,-63 259,-69 259,-69 259,-81 259,-81 259,-87 253,-93 247,-93 247,-93 207,-93 207,-93 201,-93 195,-87 195,-81 195,-81 195,-69 195,-69 195,-63 201,-57 207,-57"/>
<text text-anchor="middle" x="227" y="-71.9" font-family="SEOptimist" font-size="12.00">REST API</text>
</g>
<!-- Client1&#45;&gt;REST API -->
<g id="edge1" class="edge"><title>Client1&#45;&gt;REST API</title>
<path fill="none" stroke="black" d="M54.2929,-99.2818C87.6081,-94.5706 145.405,-86.3972 184.651,-80.8473"/>
<polygon fill="black" stroke="black" points="185.286,-84.2925 194.697,-79.4267 184.306,-77.3614 185.286,-84.2925"/>
<text text-anchor="middle" x="115" y="-99" font-family="SEOptimistLight" font-size="10.00">PUT /api/resource/a</text>
</g>
<!-- ClientN -->
<g id="node2" class="node"><title>ClientN</title>
<path fill="lightgrey" stroke="black" d="M12,-30C12,-30 42,-30 42,-30 48,-30 54,-36 54,-42 54,-42 54,-54 54,-54 54,-60 48,-66 42,-66 42,-66 12,-66 12,-66 6,-66 -5.68434e-14,-60 -5.68434e-14,-54 -5.68434e-14,-54 -5.68434e-14,-42 -5.68434e-14,-42 -5.68434e-14,-36 6,-30 12,-30"/>
<text text-anchor="middle" x="27" y="-44.9" font-family="SEOptimistLight" font-size="12.00">ClientN</text>
</g>
<!-- ClientN&#45;&gt;REST API -->
<g id="edge2" class="edge"><title>ClientN&#45;&gt;REST API</title>
<path fill="none" stroke="black" d="M54.2929,-51.5854C87.6081,-56.1284 145.405,-64.0098 184.651,-69.3615"/>
<polygon fill="black" stroke="black" points="184.316,-72.8481 194.697,-70.7314 185.262,-65.9123 184.316,-72.8481"/>
<text text-anchor="middle" x="115" y="-69" font-family="SEOptimistLight" font-size="10.00">PUT /api/resource/b</text>
</g>
<!-- Emitter\n A -->
<g id="node4" class="node"><title>Emitter\n A</title>
<ellipse fill="white" stroke="gray" stroke-width="2" cx="472.305" cy="-146" rx="40.1111" ry="24.0833"/>
<text text-anchor="middle" x="472.305" y="-149.4" font-family="SEOptimist" font-size="12.00">Emitter</text>
<text text-anchor="middle" x="472.305" y="-136.4" font-family="SEOptimist" font-size="12.00"> A</text>
</g>
<!-- REST API&#45;&gt;Emitter\n A -->
<g id="edge5" class="edge"><title>REST API&#45;&gt;Emitter\n A</title>
<path fill="none" stroke="black" stroke-width="1.5" d="M259.31,-84.1367C301.696,-96.5055 377.602,-118.656 426.152,-132.824"/>
<polygon fill="black" stroke="black" stroke-width="1.5" points="425.197,-136.191 435.777,-135.632 427.158,-129.471 425.197,-136.191"/>
<text text-anchor="middle" x="353.5" y="-129" font-family="SEOptimistLight" font-size="10.00">Create on Platform Cluster</text>
</g>
<!-- Emitter\n B -->
<g id="node5" class="node"><title>Emitter\n B</title>
<ellipse fill="white" stroke="gray" stroke-width="2" cx="472.305" cy="-40" rx="40.1111" ry="24.0833"/>
<text text-anchor="middle" x="472.305" y="-43.4" font-family="SEOptimist" font-size="12.00">Emitter</text>
<text text-anchor="middle" x="472.305" y="-30.4" font-family="SEOptimist" font-size="12.00"> B</text>
</g>
<!-- REST API&#45;&gt;Emitter\n B -->
<g id="edge6" class="edge"><title>REST API&#45;&gt;Emitter\n B</title>
<path fill="none" stroke="black" stroke-width="1.5" d="M259.31,-70.496C300.768,-64.5321 374.297,-53.9548 422.927,-46.9593"/>
<polygon fill="black" stroke="black" stroke-width="1.5" points="423.506,-50.4121 432.906,-45.5238 422.509,-43.4834 423.506,-50.4121"/>
<text text-anchor="middle" x="353.5" y="-68" font-family="SEOptimistLight" font-size="10.00">Create on Platform Cluster</text>
</g>
<!-- Emitter\n A&#45;&gt;Emitter\n A -->
<g id="edge3" class="edge"><title>Emitter\n A&#45;&gt;Emitter\n A</title>
<path fill="none" stroke="black" d="M451.093,-166.766C447.488,-177.899 454.559,-188.042 472.305,-188.042 484.228,-188.042 491.332,-183.463 493.617,-177.082"/>
<polygon fill="black" stroke="black" points="497.114,-176.731 493.517,-166.766 490.115,-176.799 497.114,-176.731"/>
<text text-anchor="middle" x="472.305" y="-202.042" font-family="SEOptimist" font-size="10.00"> &#160;Event </text>
<text text-anchor="middle" x="472.305" y="-191.042" font-family="SEOptimist" font-size="10.00"> Source A</text>
</g>
<!-- Emitter\n B&#45;&gt;Emitter\n B -->
<g id="edge4" class="edge"><title>Emitter\n B&#45;&gt;Emitter\n B</title>
<path fill="none" stroke="black" d="M451.093,-60.7659C447.488,-71.899 454.559,-82.0416 472.305,-82.0416 484.228,-82.0416 491.332,-77.4631 493.617,-71.0818"/>
<polygon fill="black" stroke="black" points="497.114,-70.7314 493.517,-60.7659 490.115,-70.7995 497.114,-70.7314"/>
<text text-anchor="middle" x="472.305" y="-96.0416" font-family="SEOptimist" font-size="10.00"> &#160;Event </text>
<text text-anchor="middle" x="472.305" y="-85.0416" font-family="SEOptimist" font-size="10.00"> Source B</text>
</g>
</g>
</svg>
